<?xml version="1.0" encoding="UTF-8" standalone="no"?>
<!-- Created with Inkscape (http://www.inkscape.org/) -->

<svg
   xmlns:dc="http://purl.org/dc/elements/1.1/"
   xmlns:cc="http://creativecommons.org/ns#"
   xmlns:rdf="http://www.w3.org/1999/02/22-rdf-syntax-ns#"
   xmlns:svg="http://www.w3.org/2000/svg"
   xmlns="http://www.w3.org/2000/svg"
   xmlns:sodipodi="http://sodipodi.sourceforge.net/DTD/sodipodi-0.dtd"
   xmlns:inkscape="http://www.inkscape.org/namespaces/inkscape"
   width="32px"
   height="32px"
   id="svg2985"
   version="1.1"
   inkscape:version="0.48.3.1 r9886"
   sodipodi:docname="edit_building_icon.svg"
   inkscape:export-filename="/home/andrew/Projects/rubypi/view/images/16x16/edit_building_icon.png"
   inkscape:export-xdpi="45"
   inkscape:export-ydpi="45">
  <defs
     id="defs2987" />
  <sodipodi:namedview
     id="base"
     pagecolor="#ffffff"
     bordercolor="#666666"
     borderopacity="1.0"
     inkscape:pageopacity="0.0"
     inkscape:pageshadow="2"
     inkscape:zoom="11.313708"
     inkscape:cx="11.494076"
     inkscape:cy="17.107152"
     inkscape:current-layer="layer1"
     showgrid="true"
     inkscape:grid-bbox="true"
     inkscape:document-units="px"
     inkscape:window-width="1366"
     inkscape:window-height="721"
     inkscape:window-x="-2"
     inkscape:window-y="-3"
     inkscape:window-maximized="1" />
  <metadata
     id="metadata2990">
    <rdf:RDF>
      <cc:Work
         rdf:about="">
        <dc:format>image/svg+xml</dc:format>
        <dc:type
           rdf:resource="http://purl.org/dc/dcmitype/StillImage" />
        <dc:title></dc:title>
      </cc:Work>
    </rdf:RDF>
  </metadata>
  <g
     id="layer1"
     inkscape:label="Layer 1"
     inkscape:groupmode="layer">
    <g
       id="g4139"
       transform="matrix(1.1459846,0,0,1.1459846,-2.3371177,-2.3279392)">
      <path
         transform="matrix(0.40007548,0,0,0.40007548,8.6058206,9.7224702)"
         d="m 30.563113,15.613373 c 0,6.643704 -5.385786,12.02949 -12.02949,12.02949 -6.643704,0 -12.0294907,-5.385786 -12.0294907,-12.02949 0,-6.6437043 5.3857867,-12.0294907 12.0294907,-12.0294907 6.643704,0 12.02949,5.3857864 12.02949,12.0294907 z"
         sodipodi:ry="12.02949"
         sodipodi:rx="12.02949"
         sodipodi:cy="15.613373"
         sodipodi:cx="18.533623"
         id="path2993"
         style="fill:#000000;fill-opacity:1;stroke:#000000;stroke-width:4.32933331;stroke-linecap:butt;stroke-linejoin:round;stroke-miterlimit:4;stroke-opacity:1;stroke-dasharray:none"
         sodipodi:type="arc" />
      <path
         transform="matrix(0.86596506,0,0,0.86596506,2.0233076,0.01280546)"
         d="m 29.827283,18.425907 c 0,7.546085 -6.117311,13.663396 -13.663396,13.663396 -7.5460852,0 -13.6633959,-6.117311 -13.6633959,-13.663396 0,-7.546085 6.1173107,-13.6633957 13.6633959,-13.6633957 7.546085,0 13.663396,6.1173107 13.663396,13.6633957 z"
         sodipodi:ry="13.663396"
         sodipodi:rx="13.663396"
         sodipodi:cy="18.425907"
         sodipodi:cx="16.163887"
         id="path3763"
         style="fill:none;stroke:#000000;stroke-width:2.0001502;stroke-linecap:butt;stroke-linejoin:round;stroke-miterlimit:4;stroke-opacity:1;stroke-dasharray:none"
         sodipodi:type="arc" />
      <path
         sodipodi:open="true"
         sodipodi:end="3.1415927"
         sodipodi:start="0"
         transform="matrix(0.15849248,-0.15849248,0.15849248,0.15849248,2.5192962,8.0143763)"
         d="m 30.563113,15.613373 c 0,6.643704 -5.385786,12.02949 -12.02949,12.02949 -6.643704,0 -12.0294907,-5.385786 -12.0294907,-12.02949 0,0 0,-10e-7 0,-10e-7"
         sodipodi:ry="12.02949"
         sodipodi:rx="12.02949"
         sodipodi:cy="15.613373"
         sodipodi:cx="18.533623"
         id="path2993-0"
         style="fill:none;stroke:#000000;stroke-width:7.72723675;stroke-linecap:butt;stroke-linejoin:round;stroke-miterlimit:4;stroke-opacity:1;stroke-dasharray:none"
         sodipodi:type="arc" />
      <path
         sodipodi:open="true"
         sodipodi:end="3.1415927"
         sodipodi:start="0"
         transform="matrix(0.22414221,0,0,0.22414221,11.866503,0.63735799)"
         d="m 30.563113,15.613373 c 0,6.643704 -5.385786,12.02949 -12.02949,12.02949 -6.643704,0 -12.0294907,-5.385786 -12.0294907,-12.02949 0,0 0,-10e-7 0,-10e-7"
         sodipodi:ry="12.02949"
         sodipodi:rx="12.02949"
         sodipodi:cy="15.613373"
         sodipodi:cx="18.533623"
         id="path2993-0-7"
         style="fill:none;stroke:#000000;stroke-width:7.72750521;stroke-linecap:butt;stroke-linejoin:round;stroke-miterlimit:4;stroke-opacity:1;stroke-dasharray:none"
         sodipodi:type="arc" />
      <path
         sodipodi:open="true"
         sodipodi:end="3.1415927"
         sodipodi:start="0"
         transform="matrix(0.15849248,0.15849248,-0.15849248,0.15849248,23.97428,2.9292252)"
         d="m 30.563113,15.613373 c 0,6.643704 -5.385786,12.02949 -12.02949,12.02949 -6.643704,0 -12.0294907,-5.385786 -12.0294907,-12.02949 0,0 0,-10e-7 0,-10e-7"
         sodipodi:ry="12.02949"
         sodipodi:rx="12.02949"
         sodipodi:cy="15.613373"
         sodipodi:cx="18.533623"
         id="path2993-0-5"
         style="fill:none;stroke:#000000;stroke-width:7.72750521;stroke-linecap:butt;stroke-linejoin:round;stroke-miterlimit:4;stroke-opacity:1;stroke-dasharray:none"
         sodipodi:type="arc" />
      <path
         sodipodi:open="true"
         sodipodi:end="3.1415927"
         sodipodi:start="0"
         transform="matrix(0,0.22414221,-0.22414221,0,31.352308,11.814831)"
         d="m 30.563113,15.613373 c 0,6.643704 -5.385786,12.02949 -12.02949,12.02949 -6.643704,0 -12.0294907,-5.385786 -12.0294907,-12.02949 0,0 0,-10e-7 0,-10e-7"
         sodipodi:ry="12.02949"
         sodipodi:rx="12.02949"
         sodipodi:cy="15.613373"
         sodipodi:cx="18.533623"
         id="path2993-0-0"
         style="fill:none;stroke:#000000;stroke-width:7.72750521;stroke-linecap:butt;stroke-linejoin:round;stroke-miterlimit:4;stroke-opacity:1;stroke-dasharray:none"
         sodipodi:type="arc" />
      <path
         sodipodi:open="true"
         sodipodi:end="3.1415927"
         sodipodi:start="0"
         transform="matrix(0,-0.22414221,0.22414221,0,0.68902975,20.123164)"
         d="m 30.563113,15.613373 c 0,6.643704 -5.385786,12.02949 -12.02949,12.02949 -6.643704,0 -12.0294907,-5.385786 -12.0294907,-12.02949 0,0 0,-10e-7 0,-10e-7"
         sodipodi:ry="12.02949"
         sodipodi:rx="12.02949"
         sodipodi:cy="15.613373"
         sodipodi:cx="18.533623"
         id="path2993-0-9"
         style="fill:none;stroke:#000000;stroke-width:7.72750521;stroke-linecap:butt;stroke-linejoin:round;stroke-miterlimit:4;stroke-opacity:1;stroke-dasharray:none"
         sodipodi:type="arc" />
      <path
         sodipodi:open="true"
         sodipodi:end="3.1415927"
         sodipodi:start="0"
         transform="matrix(-0.15849248,-0.15849248,0.15849248,-0.15849248,8.394175,29.247798)"
         d="m 30.563113,15.613373 c 0,6.643704 -5.385786,12.02949 -12.02949,12.02949 -6.643704,0 -12.0294907,-5.385786 -12.0294907,-12.02949 0,0 0,-10e-7 0,-10e-7"
         sodipodi:ry="12.02949"
         sodipodi:rx="12.02949"
         sodipodi:cy="15.613373"
         sodipodi:cx="18.533623"
         id="path2993-0-1"
         style="fill:none;stroke:#000000;stroke-width:7.72750521;stroke-linecap:butt;stroke-linejoin:round;stroke-miterlimit:4;stroke-opacity:1;stroke-dasharray:none"
         sodipodi:type="arc" />
      <path
         sodipodi:open="true"
         sodipodi:end="3.1415927"
         sodipodi:start="0"
         transform="matrix(-0.22414221,0,0,-0.22414221,20.174835,31.300636)"
         d="m 30.563113,15.613373 c 0,6.643704 -5.385786,12.02949 -12.02949,12.02949 -6.643704,0 -12.0294907,-5.385786 -12.0294907,-12.02949 0,0 0,-10e-7 0,-10e-7"
         sodipodi:ry="12.02949"
         sodipodi:rx="12.02949"
         sodipodi:cy="15.613373"
         sodipodi:cx="18.533623"
         id="path2993-0-77"
         style="fill:none;stroke:#000000;stroke-width:7.72750521;stroke-linecap:butt;stroke-linejoin:round;stroke-miterlimit:4;stroke-opacity:1;stroke-dasharray:none"
         sodipodi:type="arc" />
      <path
         sodipodi:open="true"
         sodipodi:end="3.1415927"
         sodipodi:start="0"
         transform="matrix(-0.15849248,0.15849248,-0.15849248,-0.15849248,29.849159,23.438238)"
         d="m 30.563113,15.613373 c 0,6.643704 -5.385786,12.02949 -12.02949,12.02949 -6.643704,0 -12.0294907,-5.385786 -12.0294907,-12.02949 0,0 0,-10e-7 0,-10e-7"
         sodipodi:ry="12.02949"
         sodipodi:rx="12.02949"
         sodipodi:cy="15.613373"
         sodipodi:cx="18.533623"
         id="path2993-0-11"
         style="fill:none;stroke:#000000;stroke-width:7.72750521;stroke-linecap:butt;stroke-linejoin:round;stroke-miterlimit:4;stroke-opacity:1;stroke-dasharray:none"
         sodipodi:type="arc" />
      <path
         transform="matrix(0.1097491,-0.1097491,0.1097491,0.1097491,4.1425726,7.9111138)"
         d="m 30.563113,15.613373 c 0,6.643704 -5.385786,12.02949 -12.02949,12.02949 -6.643704,0 -12.0294907,-5.385786 -12.0294907,-12.02949 0,-6.6437043 5.3857867,-12.0294907 12.0294907,-12.0294907 6.643704,0 12.02949,5.3857864 12.02949,12.0294907 z"
         sodipodi:ry="12.02949"
         sodipodi:rx="12.02949"
         sodipodi:cy="15.613373"
         sodipodi:cx="18.533623"
         id="path2993-0-50"
         style="fill:#ffffff;fill-opacity:1;stroke:none"
         sodipodi:type="arc" />
      <path
         transform="matrix(0.1097491,-0.1097491,0.1097491,0.1097491,12.316981,4.4339711)"
         d="m 30.563113,15.613373 c 0,6.643704 -5.385786,12.02949 -12.02949,12.02949 -6.643704,0 -12.0294907,-5.385786 -12.0294907,-12.02949 0,-6.6437043 5.3857867,-12.0294907 12.0294907,-12.0294907 6.643704,0 12.02949,5.3857864 12.02949,12.0294907 z"
         sodipodi:ry="12.02949"
         sodipodi:rx="12.02949"
         sodipodi:cy="15.613373"
         sodipodi:cx="18.533623"
         id="path2993-0-50-5"
         style="fill:#ffffff;fill-opacity:1;stroke:none"
         sodipodi:type="arc" />
      <path
         transform="matrix(0.1097491,-0.1097491,0.1097491,0.1097491,20.713873,8.6545147)"
         d="m 30.563113,15.613373 c 0,6.643704 -5.385786,12.02949 -12.02949,12.02949 -6.643704,0 -12.0294907,-5.385786 -12.0294907,-12.02949 0,-6.6437043 5.3857867,-12.0294907 12.0294907,-12.0294907 6.643704,0 12.02949,5.3857864 12.02949,12.0294907 z"
         sodipodi:ry="12.02949"
         sodipodi:rx="12.02949"
         sodipodi:cy="15.613373"
         sodipodi:cx="18.533623"
         id="path2993-0-50-2"
         style="fill:#ffffff;fill-opacity:1;stroke:none"
         sodipodi:type="arc" />
      <path
         transform="matrix(0.1097491,-0.1097491,0.1097491,0.1097491,24.116824,16.27801)"
         d="m 30.563113,15.613373 c 0,6.643704 -5.385786,12.02949 -12.02949,12.02949 -6.643704,0 -12.0294907,-5.385786 -12.0294907,-12.02949 0,-6.6437043 5.3857867,-12.0294907 12.0294907,-12.0294907 6.643704,0 12.02949,5.3857864 12.02949,12.0294907 z"
         sodipodi:ry="12.02949"
         sodipodi:rx="12.02949"
         sodipodi:cy="15.613373"
         sodipodi:cx="18.533623"
         id="path2993-0-50-4"
         style="fill:#ffffff;fill-opacity:1;stroke:none"
         sodipodi:type="arc" />
      <path
         transform="matrix(0.1097491,-0.1097491,0.1097491,0.1097491,20.713873,24.232961)"
         d="m 30.563113,15.613373 c 0,6.643704 -5.385786,12.02949 -12.02949,12.02949 -6.643704,0 -12.0294907,-5.385786 -12.0294907,-12.02949 0,-6.6437043 5.3857867,-12.0294907 12.0294907,-12.0294907 6.643704,0 12.02949,5.3857864 12.02949,12.0294907 z"
         sodipodi:ry="12.02949"
         sodipodi:rx="12.02949"
         sodipodi:cy="15.613373"
         sodipodi:cx="18.533623"
         id="path2993-0-50-0"
         style="fill:#ffffff;fill-opacity:1;stroke:none"
         sodipodi:type="arc" />
      <path
         transform="matrix(0.1097491,-0.1097491,0.1097491,0.1097491,12.250689,28.099951)"
         d="m 30.563113,15.613373 c 0,6.643704 -5.385786,12.02949 -12.02949,12.02949 -6.643704,0 -12.0294907,-5.385786 -12.0294907,-12.02949 0,-6.6437043 5.3857867,-12.0294907 12.0294907,-12.0294907 6.643704,0 12.02949,5.3857864 12.02949,12.0294907 z"
         sodipodi:ry="12.02949"
         sodipodi:rx="12.02949"
         sodipodi:cy="15.613373"
         sodipodi:cx="18.533623"
         id="path2993-0-50-7"
         style="fill:#ffffff;fill-opacity:1;stroke:none"
         sodipodi:type="arc" />
      <path
         transform="matrix(0.1097491,-0.1097491,0.1097491,0.1097491,4.1852522,24.210864)"
         d="m 30.563113,15.613373 c 0,6.643704 -5.385786,12.02949 -12.02949,12.02949 -6.643704,0 -12.0294907,-5.385786 -12.0294907,-12.02949 0,-6.6437043 5.3857867,-12.0294907 12.0294907,-12.0294907 6.643704,0 12.02949,5.3857864 12.02949,12.0294907 z"
         sodipodi:ry="12.02949"
         sodipodi:rx="12.02949"
         sodipodi:cy="15.613373"
         sodipodi:cx="18.533623"
         id="path2993-0-50-48"
         style="fill:#ffffff;fill-opacity:1;stroke:none"
         sodipodi:type="arc" />
      <path
         transform="matrix(0.1097491,-0.1097491,0.1097491,0.1097491,0.40665032,16.322204)"
         d="m 30.563113,15.613373 c 0,6.643704 -5.385786,12.02949 -12.02949,12.02949 -6.643704,0 -12.0294907,-5.385786 -12.0294907,-12.02949 0,-6.6437043 5.3857867,-12.0294907 12.0294907,-12.0294907 6.643704,0 12.02949,5.3857864 12.02949,12.0294907 z"
         sodipodi:ry="12.02949"
         sodipodi:rx="12.02949"
         sodipodi:cy="15.613373"
         sodipodi:cx="18.533623"
         id="path2993-0-50-8"
         style="fill:#ffffff;fill-opacity:1;stroke:none"
         sodipodi:type="arc" />
    </g>
  </g>
</svg>
